<?xml version="1.0" encoding="UTF-8"?> <svg xmlns="http://www.w3.org/2000/svg" width="540" height="200" viewBox="0 0 540 200" fill="none"> <g clip-path="url(#clip0)"> <path d="M79.922 100.316C86.0118 91.7954 93.0799 93.4906 101.411 94.4475C99.2005 92.0961 98.1123 89.1295 98.1123 85.9442C98.1123 78.6063 104.226 72.6561 111.771 72.6561C127.528 72.6561 125.581 90.4145 118.747 90.4145C117.212 90.4145 115.98 89.3415 115.647 88.0701C115.372 87.0208 115.636 85.787 115.273 84.7924C114.761 83.4049 113.347 82.3864 111.765 82.3864C110.745 82.3864 109.828 82.7864 109.156 83.4321C107.034 85.469 108.359 89.5465 109.743 91.6313C111.668 94.5227 115.05 96.3889 118.929 96.3513L119.56 96.3318C130.363 95.1219 133.542 85.966 130.799 77.6574C129.608 74.0483 125.451 68.737 120.769 66.5122C129.392 61.5428 132.039 50.083 131.733 43.2817L39 100.317L131.733 157.359C132.039 150.554 129.392 139.095 120.769 134.129C125.451 131.9 129.608 126.589 130.799 122.98C133.542 114.671 130.363 105.515 119.56 104.302L118.929 104.283C115.05 104.244 111.668 106.111 109.743 109.003C108.359 111.087 107.034 115.165 109.156 117.202C109.828 117.848 110.745 118.247 111.765 118.247C113.347 118.247 114.761 117.233 115.273 115.842C115.637 114.847 115.372 113.616 115.647 112.564C115.98 111.292 117.212 110.219 118.747 110.219C125.581 110.219 127.528 127.978 111.771 127.978C104.226 127.978 98.1123 122.028 98.1123 114.69C98.1123 111.504 99.2005 108.538 101.411 106.186C93.0799 107.146 86.0118 108.842 79.922 100.315" fill="#9B804D"></path> <path d="M193.559 129.098V99.9719C193.559 99.6096 193.549 99.2541 193.54 98.9056V98.8863L193.52 98.5142V98.4948V98.4657L193.513 98.398V98.3689C192.858 88.1567 185.845 84.6501 177.105 84.6501C170.246 84.6501 164.788 86.8545 162.021 89.5511V94.9818C165.752 92.9791 171.097 91.0721 175.282 91.0721C180.483 91.0721 184.121 92.6305 184.132 98.3689L184.135 98.4174V98.9133L184.155 101.73C170.588 103.045 159.236 105.496 159.236 117.191C159.236 125.756 165.271 131.686 177.433 131.686C181.604 131.686 190.134 130.934 193.564 129.106L193.559 129.098ZM184.155 124.834C181.47 125.931 176.695 126.037 174.141 125.278C172.662 124.837 171.446 124.161 170.554 123.156C169.38 121.833 168.748 119.974 168.748 117.52C168.748 109.451 175.343 107.66 184.155 107.66V124.834Z" fill="#253168"></path> <path d="M370.215 130.79V123.671C369.404 123.91 368.76 124.074 367.867 124.074C364.465 124.074 363.089 121.815 363.089 118.428V91.0621H370.215V84.828H363.089V73.8162L353.206 79.9612L353.209 84.828H347.971V91.0621H353.209V119.901C353.209 125.947 356.611 131.678 365.193 131.678C367.544 131.678 369.323 131.193 370.215 130.79" fill="#253168"></path> <path d="M342.482 117.849C342.482 112.541 340.419 107.985 331.401 104.444C327.364 102.845 324.528 100.989 324.528 97.2809C324.528 94.0751 326.849 91.2931 331.143 91.2931C334.408 91.2931 338.136 93.4086 339.828 95.1961V89.6491C334.01 80.8963 314.395 83.5074 314.395 97.7866C314.395 102.507 316.197 107.226 324.961 110.514C329.684 112.285 332.359 114.052 332.359 117.927C332.359 126.243 318.991 125.238 314.35 121.796L314.399 129.062C317.131 130.443 320.585 131.677 325.995 131.677C336.128 131.677 342.486 125.269 342.486 117.849" fill="#253168"></path> <path d="M456.325 130.444L456.318 98.345C456.318 91.1166 451.9 84.6399 438.467 84.6399C430.874 84.6399 425.117 85.884 420.864 87.88L420.867 130.444H431.045L431.042 92.2786C432.961 91.5336 434.712 91.0345 438.048 91.0345C444.474 91.0345 446.143 94.8555 446.143 98.509L446.146 130.444H456.325Z" fill="#253168"></path> <path d="M247.332 84.7059C235.945 84.3165 229.945 85.6495 225.276 87.8912V130.445H235.444V92.4573C237.775 91.1278 243.415 90.3657 247.328 91.9477L247.332 84.7059Z" fill="#253168"></path> <path d="M214.367 84.8552H204.477V130.444H214.367V84.8552Z" fill="#253168"></path> <path d="M306.212 129.098V99.9721C306.212 99.6097 306.202 99.2541 306.192 98.9057V98.8863L306.173 98.5142V98.4948V98.4659L306.166 98.398V98.3689C305.51 88.1567 298.497 84.6501 289.757 84.6501C282.898 84.6501 277.44 86.8547 274.67 89.5512V94.9819C278.405 92.9791 283.75 91.0721 287.934 91.0721C293.135 91.0721 296.774 92.6305 296.784 98.3689V98.4174V98.9135L296.803 101.73C283.237 103.045 271.885 105.496 271.885 117.192C271.885 125.756 277.92 131.686 290.079 131.686C294.253 131.686 302.783 130.934 306.213 129.106L306.212 129.098ZM296.803 124.834C294.116 125.931 289.344 126.037 286.79 125.278C285.31 124.837 284.092 124.161 283.203 123.156C282.025 121.833 281.397 119.974 281.397 117.52C281.397 109.451 287.988 107.66 296.803 107.66V124.834Z" fill="#253168"></path> <path d="M409.943 129.098V99.9721C409.943 99.6097 409.936 99.2541 409.924 98.9057L409.92 98.8863L409.901 98.5142V98.4948V98.4659L409.898 98.398L409.894 98.3689C409.242 88.1567 402.225 84.6501 393.486 84.6501C386.63 84.6501 381.172 86.8547 378.402 89.5512V94.9819C382.137 92.9791 387.478 91.0721 391.666 91.0721C396.867 91.0721 400.506 92.6305 400.516 98.3689V98.4174V98.9135L400.535 101.73C386.969 103.045 375.617 105.496 375.617 117.192C375.617 125.756 381.655 131.686 393.814 131.686C397.988 131.686 406.519 130.934 409.945 129.106L409.943 129.098ZM400.535 124.834C397.851 125.931 393.079 126.037 390.522 125.278C389.046 124.837 387.827 124.161 386.935 123.156C385.761 121.833 385.129 119.974 385.129 117.52C385.129 109.451 391.723 107.66 400.535 107.66V124.834Z" fill="#253168"></path> <path d="M498.777 129.098V99.9721C498.777 99.6097 498.767 99.2541 498.758 98.9057L498.754 98.8863L498.735 98.5142V98.4948V98.4659L498.728 98.398V98.3689C498.072 88.1567 491.059 84.6501 482.319 84.6501C475.46 84.6501 470.002 86.8547 467.236 89.5512V94.9819C470.97 92.9791 476.312 91.0721 480.496 91.0721C485.697 91.0721 489.336 92.6305 489.349 98.3689V98.4174V98.9135L489.369 101.73C475.803 103.045 464.45 105.496 464.45 117.192C464.45 125.756 470.485 131.686 482.648 131.686C486.818 131.686 495.349 130.934 498.778 129.106L498.777 129.098ZM489.369 124.834C486.684 125.931 481.913 126.037 479.355 125.278C477.879 124.837 476.661 124.161 475.768 123.156C474.594 121.833 473.963 119.974 473.963 117.52C473.963 109.451 480.553 107.66 489.369 107.66V124.834Z" fill="#253168"></path> <path d="M214.692 73.885C214.692 71.1406 212.413 68.96 209.419 68.96C206.512 68.96 204.15 71.1406 204.15 73.885C204.15 76.5474 206.512 78.7244 209.419 78.7244C212.413 78.7244 214.692 76.5474 214.692 73.885Z" fill="#253168"></path> </g> <defs> <clipPath id="clip0"> <rect width="462.353" height="116.64" fill="white" transform="translate(39 42)"></rect> </clipPath> </defs> </svg> 