<?xml version="1.0" encoding="UTF-8"?> <svg xmlns="http://www.w3.org/2000/svg" width="540" height="200" viewBox="0 0 540 200" fill="none"> <path fill-rule="evenodd" clip-rule="evenodd" d="M86.4907 75.3782V89.9125H139.051V118.981H86.4907C86.4907 118.981 86.5752 152.951 86.533 152.993C90.6313 154.895 94.8986 156.373 99.2082 157.261C124.77 151.937 148.811 129.121 149.571 88.645L149.825 75.3782H86.4907Z" fill="#2D7E34"></path> <path d="M149.825 75.3783L150.332 43.9858C133.473 42.676 116.404 42 99.1658 42C81.9274 42 64.9003 42.676 48 44.028L48.2958 68.5336L48.7605 88.6451C48.7605 88.6451 48.9295 107.32 55.1826 120.629C65.5341 144.923 86.4905 152.993 86.4905 152.993L86.4483 118.981H139.008V89.9126H86.4905V75.3783H149.825Z" fill="#77B848"></path> <path d="M199.849 64.2661V71.829H215.609V80.2792H199.849V94.4333H189.582V55.8582H216.918V64.2661H199.849Z" fill="#1D1D1B"></path> <path d="M245.396 84.2086H237.411V94.4333H227.144V55.8582H247.002C250.171 55.9004 252.706 56.2384 254.607 56.8722C256.508 57.5059 257.903 58.6467 258.832 60.3368C259.762 61.9846 260.269 64.3929 260.269 67.5617C260.269 70.2235 260.142 72.2093 259.931 73.6036C259.719 74.9556 259.043 76.1386 258.029 77.1526C256.973 78.1667 255.325 78.9272 253.002 79.4764V79.899C255.156 79.9835 256.846 80.575 258.114 81.758C259.339 82.941 259.973 84.5888 259.973 86.7436V94.5178H249.579V89.1097C249.579 85.8141 248.185 84.2086 245.396 84.2086ZM237.411 75.2514H245.396C246.748 75.2514 247.72 75.0824 248.312 74.7021C248.903 74.3641 249.284 73.7726 249.453 73.0121C249.622 72.2515 249.664 70.984 249.664 69.2095C249.664 67.4772 249.368 66.2941 248.776 65.7026C248.185 65.1111 247.086 64.7731 245.396 64.7731H237.411V75.2514Z" fill="#1D1D1B"></path> <path d="M281.52 64.2661V71.322H297.998V78.4624H281.52V85.9831H299.435V94.4333H271.253V55.8582H299.054V64.2661H281.52Z" fill="#1D1D1B"></path> <path d="M321.195 64.2661V71.322H337.673V78.4624H321.195V85.9831H339.109V94.4333H310.928V55.8582H338.729V64.2661H321.195Z" fill="#1D1D1B"></path> <path d="M351.869 94.4333V55.8582H371.389C375.023 55.8582 378.023 56.3652 380.262 57.3369C382.544 58.3087 384.191 59.9143 385.29 62.1113C386.388 64.3084 386.938 67.2237 386.938 70.8573V78.9272C386.938 82.5608 386.515 85.4761 385.628 87.7577C384.741 90.0392 383.262 91.687 381.192 92.8278C379.121 93.9263 376.333 94.4756 372.784 94.4756H351.869V94.4333ZM362.136 64.8154V85.4761H371.136C374.6 85.4761 376.333 83.2791 376.333 78.885V70.815C376.333 69.1672 376.164 67.9419 375.783 67.0547C375.445 66.1674 374.896 65.5759 374.136 65.2801C373.417 64.9421 372.403 64.7731 371.094 64.7731H362.136V64.8154Z" fill="#1D1D1B"></path> <path d="M414.653 94.7292C411.78 94.7292 409.33 94.518 407.217 94.1377C405.105 93.7574 403.288 93.0392 401.725 92.0251C400.161 91.0111 398.978 89.5746 398.091 87.6733C397.246 85.8143 396.823 83.4482 396.823 80.5751V69.6744C396.823 66.8013 397.246 64.4352 398.091 62.534C398.936 60.6327 400.161 59.1961 401.725 58.1821C403.288 57.1681 405.105 56.492 407.217 56.0695C409.33 55.6893 411.823 55.478 414.653 55.478C417.526 55.478 420.019 55.6893 422.132 56.0695C424.244 56.4498 426.061 57.1681 427.624 58.1821C429.188 59.1961 430.371 60.6327 431.216 62.534C432.061 64.4352 432.483 66.8013 432.483 69.6744V80.5751C432.483 83.4482 432.061 85.8143 431.216 87.6733C430.371 89.5323 429.145 91.0111 427.624 92.0251C426.061 93.0392 424.244 93.7574 422.132 94.1377C420.019 94.5602 417.526 94.7292 414.653 94.7292ZM414.653 85.772C416.639 85.772 418.076 85.6452 419.09 85.3495C420.061 85.096 420.78 84.5045 421.245 83.5749C421.709 82.6877 421.92 81.2934 421.92 79.3921V70.6884C421.92 69.2518 421.794 68.1111 421.54 67.2661C421.287 66.421 420.864 65.8295 420.315 65.407C419.766 64.9845 419.047 64.731 418.16 64.6043C417.273 64.4775 416.132 64.393 414.653 64.393C412.71 64.393 411.231 64.5197 410.301 64.7732C409.33 65.0267 408.611 65.6183 408.189 66.5055C407.724 67.3928 407.471 68.7871 407.428 70.6462V79.3498C407.471 81.2511 407.724 82.6454 408.189 83.5327C408.654 84.42 409.33 85.0115 410.301 85.265C411.273 85.6453 412.71 85.772 414.653 85.772Z" fill="#1D1D1B"></path> <path d="M452.51 64.8576L453.524 94.4333H443.257V55.8582H459.565L466.917 80.068H467.297L474.269 55.8582H491V94.4333H480.691L481.747 64.8576H481.367L471.607 94.4333H462.692L452.848 64.8576H452.51Z" fill="#1D1D1B"></path> <path d="M202.427 115.516V118.812H195.371V142.515H191.272V118.812H187.174V115.516H191.272V111.503C191.272 108.503 191.948 106.432 193.3 105.249C194.652 104.066 196.85 103.475 199.892 103.475L202.427 103.644V106.982C201.708 106.897 200.99 106.813 200.23 106.813H199.511C197.948 106.813 196.892 107.151 196.3 107.827C195.709 108.503 195.413 109.601 195.413 111.207V115.516H202.427V115.516Z" fill="#1D1D1B"></path> <path d="M213.412 108.376H209.314V103.939H213.412V108.376ZM213.412 142.514H209.314V115.558H213.412V142.514Z" fill="#1D1D1B"></path> <path d="M226.806 125.994V142.515H222.707V115.559H226.552V118.981C227.524 117.46 228.834 116.404 230.524 115.812C231.833 115.347 233.566 115.094 235.721 115.094C239.396 115.094 241.974 115.77 243.41 117.122C244.889 118.474 245.607 121.009 245.607 124.642V142.472H241.509V125.023C241.509 122.319 241.086 120.544 240.284 119.657C239.481 118.812 237.664 118.389 234.918 118.389C232.214 118.389 230.186 118.981 228.834 120.122C227.482 121.347 226.806 123.29 226.806 125.994Z" fill="#1D1D1B"></path> <path d="M273.113 129.375V125.53C273.113 122.277 272.648 120.207 271.719 119.404C270.789 118.559 268.634 118.136 265.254 118.136C262.762 118.136 261.114 118.39 260.227 118.939C259.339 119.488 258.875 120.587 258.875 122.277V123.037H254.776C254.776 119.657 255.79 117.46 257.818 116.362C259.255 115.559 261.832 115.179 265.466 115.179C269.648 115.179 272.564 115.728 274.169 116.784C276.24 118.136 277.254 120.756 277.254 124.727V142.642H273.409L273.578 139.262C272.648 140.952 271.634 142.008 270.493 142.473C269.353 142.938 267.367 143.149 264.536 143.149C260.86 143.149 258.283 142.642 256.72 141.628C254.818 140.36 253.889 137.994 253.889 134.53C253.889 131.276 254.818 129.037 256.677 127.854C258.199 126.84 260.691 126.375 264.198 126.375C267.282 126.375 269.395 126.586 270.536 127.051C271.634 127.347 272.522 128.15 273.113 129.375ZM273.113 134.656C273.113 132.333 272.564 130.854 271.465 130.262C270.367 129.671 267.916 129.375 264.156 129.375C261.917 129.375 260.396 129.671 259.551 130.178C258.494 130.854 257.945 132.121 257.945 133.98C257.945 136.262 258.41 137.783 259.339 138.628C260.269 139.431 261.874 139.853 264.198 139.853C267.409 139.853 269.564 139.642 270.62 139.177C272.31 138.501 273.113 136.98 273.113 134.656Z" fill="#1D1D1B"></path> <path d="M290.562 125.994V142.515H286.464V115.559H290.309V118.981C291.28 117.46 292.59 116.404 294.28 115.812C295.632 115.347 297.365 115.094 299.519 115.094C303.195 115.094 305.773 115.77 307.209 117.122C308.688 118.474 309.406 121.009 309.406 124.642V142.472H305.308V125.023C305.308 122.319 304.885 120.544 304.082 119.657C303.28 118.812 301.463 118.389 298.717 118.389C296.013 118.389 293.985 118.981 292.632 120.122C291.238 121.347 290.562 123.29 290.562 125.994Z" fill="#1D1D1B"></path> <path d="M337.165 132.755H341.136C341.136 136.811 340.249 139.557 338.432 141.036C336.785 142.388 333.827 143.022 329.517 143.022C325.039 143.022 321.955 142.05 320.349 140.106C318.743 138.163 317.941 134.487 317.941 129.079C317.941 123.713 318.743 120.079 320.349 118.094C321.955 116.108 324.954 115.094 329.433 115.094C333.151 115.094 335.897 115.643 337.63 116.742C339.7 118.051 340.714 120.291 340.714 123.502V124.389H336.785C336.785 122.107 336.362 120.586 335.475 119.826C334.461 118.939 332.433 118.474 329.391 118.474C326.349 118.474 324.363 119.108 323.476 120.417C322.546 121.727 322.081 124.6 322.081 128.994C322.081 133.346 322.588 136.219 323.56 137.614C324.532 139.008 326.518 139.684 329.517 139.684C332.686 139.684 334.757 139.219 335.728 138.332C336.7 137.445 337.165 135.543 337.165 132.755Z" fill="#1D1D1B"></path> <path d="M372.318 129.839H352.967C352.967 133.937 353.474 136.599 354.446 137.867C355.418 139.134 357.488 139.81 360.657 139.81C363.826 139.81 365.896 139.514 366.825 138.923C367.755 138.331 368.22 137.064 368.22 135.205V134.317H372.318C372.318 137.909 371.304 140.317 369.318 141.585C367.755 142.599 364.84 143.063 360.614 143.063C356.094 143.063 353.009 142.092 351.319 140.148C349.671 138.205 348.826 134.486 348.826 129.036C348.826 123.839 349.714 120.206 351.488 118.178C353.263 116.15 356.305 115.135 360.53 115.135C364.713 115.135 367.713 116.065 369.529 117.966C371.346 119.868 372.276 123.121 372.276 127.811V129.839H372.318ZM368.22 126.67C368.22 123.543 367.67 121.389 366.572 120.163C365.473 118.938 363.487 118.347 360.572 118.347C357.657 118.347 355.671 118.938 354.615 120.163C353.516 121.389 353.009 123.543 353.009 126.67H368.22Z" fill="#1D1D1B"></path> </svg> 