<svg width="165" height="58" viewBox="0 0 165 58" fill="none" xmlns="http://www.w3.org/2000/svg">
<path fill-rule="evenodd" clip-rule="evenodd" d="M28.9037 0L19.2358 9.70019H9.66787V19.3001L0 28.9997L9.66787 38.7005V48.3004H19.2358L28.9037 58L38.5715 48.3004H48.1395V38.7005L57.8073 28.9997L48.1395 19.3001V9.70019H38.5715L28.9037 0ZM12.0729 39.4065L1.70011 28.9997L12.0729 18.5935V12.1126H18.5315L28.9037 1.7058L39.2758 12.1126H45.7351V18.5935L56.1072 28.9997L45.7351 39.4065V45.888H39.2758L28.9037 56.2948L18.5315 45.888H12.0729V39.4065ZM5.10033 28.9997L28.9037 52.8832L52.707 28.9997L28.9037 5.11739L5.10033 28.9997Z" fill="#00805F"/>
<path fill-rule="evenodd" clip-rule="evenodd" d="M45.735 22.0051C41.7186 26.8632 35.6615 29.9651 28.9036 29.9651C23.6874 29.9656 19.4339 34.2334 19.4339 39.4671C19.4339 41.9388 20.3824 44.1946 21.9329 45.888H21.9317L28.9036 52.8826L52.707 29.0003L45.735 22.0051ZM12.0723 35.9944C16.0887 31.1363 22.1458 28.0356 28.9036 28.035C34.1199 28.035 38.374 23.7672 38.374 18.533C38.374 16.0618 37.4255 13.8054 35.875 12.1126L28.9036 5.1174L5.10091 29.0003L12.0723 35.9956V35.9944ZM1.70068 29.0003L12.0722 18.5935V12.1126H18.5315L28.9036 1.70581L39.2758 12.1126H45.7351V18.5935L56.1072 29.0003L45.7351 39.4071V45.888H39.2758L28.9036 56.2948L18.5315 45.888H12.0722V39.4071L1.70068 29.0003Z" fill="#FAAE17"/>
<path fill-rule="evenodd" clip-rule="evenodd" d="M99.1172 42.5101L95.2699 34.7898L91.4232 42.5101H99.1172ZM63.5313 40.58V45.4049H74.5918C75.914 45.4049 76.9962 44.3197 76.9962 42.9924C76.9962 41.6658 75.914 40.58 74.5918 40.58H63.5313ZM63.5313 32.8603V37.6852H74.5918C75.914 37.6852 76.9962 36.5994 76.9962 35.2728C76.9962 33.9455 75.914 32.8603 74.5918 32.8603H63.5313ZM108.735 29.9649H113.544L127.009 43.4748V29.9649H131.818L131.818 48.3003H127.009L113.544 34.7898V48.3003H108.735V29.9649ZM142.013 39.1323L154.42 29.9649H149.131L138.551 37.6852V29.9649H133.741V48.3003H138.551V40.58L149.131 48.3003H154.42L142.013 39.1323ZM144.321 9.70007H149.131V17.4198L159.71 9.70007H165L152.593 18.8675L165 28.0348H159.71L149.131 20.3152V28.0348H144.321V9.70007ZM133.741 20.3152L142.878 9.70007H138.07L131.337 17.4198L124.605 9.70007H119.796L128.933 20.3152V28.0348H133.741V20.3152ZM108.735 9.70007H113.544V25.14H127.009V28.0348H108.735V9.70007ZM95.2699 14.525L99.1172 22.2452H91.4232L95.2699 14.525ZM102.002 28.0348H106.812L97.6743 9.70007H92.8655L83.7286 28.0348H88.5374L89.9803 25.14H100.56L102.002 28.0348ZM58.7219 9.70007H63.5313V17.4198H76.9962V9.70007H81.805V28.0348H76.9962V20.3152H63.5313V28.0348H58.7219V9.70007ZM58.7219 29.9649H77.2363C79.7495 29.9649 81.805 32.0279 81.805 34.5489C81.805 37.0699 79.7495 39.1323 77.2363 39.1323C79.7495 39.1323 81.805 41.1953 81.805 43.7163C81.805 46.2373 79.7495 48.3003 77.2363 48.3003H58.7219V29.9649ZM88.5374 48.3003H83.7286L92.8655 29.9649H97.6743L106.812 48.3003H102.002L100.56 45.4049H89.9803L88.5374 48.3003Z" fill="#00805F"/>
</svg>
