<svg width="2077" height="287" viewBox="0 0 2077 287" fill="none" xmlns="http://www.w3.org/2000/svg">
<g clip-path="url(#clip0)">
<path fill-rule="evenodd" clip-rule="evenodd" d="M36.162 3.05176e-05H250.686C270.657 3.05176e-05 286.847 16.1989 286.847 36.1812V250.819C286.847 270.801 270.657 287 250.686 287H36.162C16.1903 287 0 270.801 0 250.819V36.1812C0 16.1989 16.1903 3.05176e-05 36.162 3.05176e-05ZM96.6506 167.6L131.494 150.169V201.52C131.494 210.645 126.337 218.983 118.183 223.064L83.3474 240.495V189.142C83.3474 180.017 88.4972 171.679 96.6506 167.6ZM168.871 65.235L203.714 47.8043V165.394C203.714 174.513 198.558 182.851 190.403 186.937L155.567 204.361V86.777C155.567 77.6521 160.717 69.3139 168.871 65.235Z" fill="#FE5000"/>
<path fill-rule="evenodd" clip-rule="evenodd" d="M1019.37 246.138H1071.24L993.389 53H941.324L863.472 246.138H915.346L925.955 219.822H1008.76L1019.37 246.138ZM940.104 184.714L967.363 117.12L994.609 184.714H940.104ZM860.541 184.703V187.096V187.29C860.553 191.42 860.541 194.869 860.104 199.205C858.489 215.443 850.183 227.431 835.598 235.35C823.066 242.164 809.308 244.617 795.233 245.661C791.129 245.965 787.024 246.099 782.908 246.111V246.147C782.729 246.147 782.549 246.143 782.367 246.14C782.091 246.134 781.813 246.128 781.535 246.135C781.257 246.128 780.979 246.134 780.704 246.14C780.522 246.143 780.342 246.147 780.163 246.147L780.151 246.111C776.046 246.099 771.942 245.965 767.837 245.661C753.763 244.617 740.004 242.164 727.472 235.35C712.888 227.431 704.582 215.443 702.967 199.205C702.51 194.652 702.518 191.091 702.527 186.675C702.528 186.037 702.53 185.382 702.53 184.703H750.12C750.12 185.363 750.118 185.81 750.117 186.197V186.204V186.212C750.114 186.856 750.112 187.339 750.12 188.383C750.266 198.5 754.2 203.869 764.267 206.249C768.894 207.354 773.545 208.01 778.196 208.168C778.257 208.18 778.329 208.18 778.402 208.18C779.908 208.229 781.414 208.229 782.908 208.168V208.18C788.202 208.022 794.104 207.367 798.804 206.249C806.891 204.33 811.202 200.298 812.659 193.533H812.611C812.734 193.123 812.805 192.696 812.875 192.273L812.876 192.27C812.888 192.192 812.901 192.116 812.914 192.039C813.084 190.885 813.194 189.658 813.218 188.359C813.181 186.841 812.987 185.286 812.623 183.695C811.651 179.541 808.494 176.894 804.717 174.962C800.078 172.565 792.783 171.259 786.752 170.18L786.751 170.179C785.174 169.897 783.683 169.63 782.349 169.363C778.68 168.625 775.006 167.908 771.332 167.191L771.332 167.191C762.678 165.503 754.025 163.815 745.433 161.845C736.641 159.841 728.371 156.368 721.024 151.133C719.968 150.38 718.972 149.603 718.013 148.789H717.988C711.977 143.603 707.678 137.166 705.359 129.344C703.89 124.401 703.003 119.421 702.675 114.441H702.651V114.028C702.542 112.328 702.53 110.628 702.566 108.927C702.554 106.012 702.639 103.219 702.967 99.9517C704.582 83.701 712.888 71.7255 727.472 63.8066C740.004 56.993 753.763 54.5396 767.837 53.4951C771.942 53.1915 776.046 53.0579 780.163 53.0336V53.0093C780.386 53.0093 780.612 53.0123 780.84 53.0153L780.84 53.0153C781.071 53.0183 781.303 53.0214 781.535 53.0214C781.768 53.0214 782 53.0183 782.231 53.0153L782.231 53.0153C782.458 53.0123 782.685 53.0093 782.908 53.0093L782.92 53.0336C787.024 53.0579 791.129 53.1915 795.233 53.4951C809.308 54.5396 823.066 56.993 835.598 63.8066C850.183 71.7255 858.489 83.701 860.104 99.9517C860.56 104.505 860.553 108.066 860.544 112.475C860.543 113.111 860.541 113.765 860.541 114.441H812.951C812.951 113.783 812.952 113.337 812.954 112.949V112.94V112.94C812.956 112.295 812.958 111.81 812.951 110.773C812.805 100.656 808.871 95.2878 798.804 92.9073C794.177 91.802 789.526 91.1462 784.875 90.9762H784.668C783.163 90.9276 781.657 90.9276 780.163 90.9762C774.869 91.134 768.967 91.7899 764.267 92.9073C756.811 94.6684 752.731 98.0813 751.055 103.838C750.205 106.838 750.266 110.458 751.067 113.883C752.039 118.036 755.184 120.684 758.961 122.627C763.718 125.07 770.84 126.379 776.795 127.473L776.796 127.473L776.8 127.474C778.185 127.728 779.507 127.971 780.722 128.214C784.391 128.953 788.065 129.669 791.739 130.386C800.393 132.075 809.045 133.763 817.638 135.732C826.43 137.749 834.7 141.21 842.047 146.457C843.103 147.198 844.099 147.987 845.058 148.789H845.082C851.094 153.975 855.392 160.412 857.712 168.234C859.339 173.711 860.262 179.201 860.481 184.703H860.541ZM448.768 72.1225C440.055 76.5931 434.555 85.7414 434.555 95.7546V123.455L434.531 172.681C434.531 176.079 434.365 179.502 433.986 182.877C432.682 194.34 426.316 201.843 415.173 202.599H366V246.05C366.545 246.087 397.201 246.123 397.58 246.123C400.572 246.12 403.565 246.127 406.558 246.135H406.559H406.559H406.56C413.909 246.154 421.262 246.173 428.616 246.026C435.633 245.892 442.58 244.832 449.361 242.834C463.788 238.583 474.872 230.202 480.953 215.706C484.865 206.399 485.944 196.544 485.956 186.531V182.572C485.956 182.476 485.962 182.38 485.968 182.283C485.974 182.182 485.98 182.08 485.98 181.975V160.706V152.813V53.0098L448.768 72.1225ZM681.159 157.82C681.159 188.682 674.117 211.627 660.033 226.655C646.038 241.594 624.421 249.063 595.183 249.063C567.906 249.063 547.181 241.594 533.007 226.655C518.923 211.627 511.881 189.039 511.881 158.893V53.2928H569.912V161.04C569.912 173.385 572.185 182.912 576.731 189.621C581.366 196.24 587.963 199.55 596.52 199.55C605.167 199.55 611.719 196.419 616.176 190.158C620.722 183.896 622.995 174.637 622.995 162.382V53.2928H681.159V157.82ZM1202.93 161.919V53H1255.6V137.158V246.138L1202.93 246.126C1200.77 242.288 1142.14 138.287 1141.48 137.206V246.138H1088.8V53H1141.48C1141.48 53 1200.62 157.912 1202.93 161.919Z" fill="#FE5000"/>
<path fill-rule="evenodd" clip-rule="evenodd" d="M1643.98 245.944H1696.68L1617.59 52.6228H1564.71L1485.62 245.944H1538.3L1549.11 219.581H1633.22L1643.98 245.944ZM1563.46 184.419L1591.15 116.776L1618.84 184.419H1563.46Z" fill="#FE5000"/>
<path fill-rule="evenodd" clip-rule="evenodd" d="M2012.16 245.944H2077L1997.53 140.017L2076.77 52.6228H2006.76L1954.06 110.752V52.6228H1901.38V245.944H1954.06V187.956L1962.06 179.157L2012.16 245.944Z" fill="#FE5000"/>
<path fill-rule="evenodd" clip-rule="evenodd" d="M1485.52 183.129C1485.33 179.686 1484.95 176.236 1484.09 172.893C1480.98 160.497 1473.08 151.939 1461.9 146.242C1461.18 145.861 1460.51 145.48 1459.41 144.858C1460.27 144.377 1460.66 144.136 1461.03 143.949C1470.94 138.633 1476.57 130.222 1478.82 119.31C1480.55 110.886 1480.5 102.375 1479.21 93.9033C1477.62 83.6201 1473.04 74.9081 1465 68.1217C1456.2 60.6533 1445.74 56.9693 1434.65 54.8632C1425.52 53.0981 1416.23 52.5766 1406.96 52.6234H1380.23H1327.54V245.945H1380.23V245.898C1390.85 245.898 1401.47 245.898 1412.08 245.851C1419.58 245.798 1427.13 245.276 1434.65 244.467C1444.49 243.458 1453.91 240.683 1462.57 235.709C1474.57 228.815 1482.08 218.672 1484.61 204.946C1485.95 197.712 1485.9 190.404 1485.52 183.129ZM1410.92 210.836C1410.74 210.836 1410.6 210.783 1410.35 210.783C1406.68 210.883 1401.32 210.783 1397.78 210.783C1392.28 210.783 1385.73 210.729 1380.23 210.783V166.862H1410.92C1423.07 166.862 1432.92 176.677 1432.92 188.826C1432.92 200.974 1423.07 210.836 1410.92 210.836ZM1410.98 131.706H1410.92H1380.23V87.732C1386.02 87.7788 1402.62 87.7788 1410.6 87.7788H1410.98C1423.07 87.7788 1432.92 97.594 1432.92 109.743C1432.92 121.844 1423.07 131.706 1410.98 131.706Z" fill="#FE5000"/>
<path fill-rule="evenodd" clip-rule="evenodd" d="M1828.17 52.6222V161.646C1825.83 157.634 1766.68 52.6222 1766.68 52.6222H1713.98V245.944H1766.68V136.907C1767.34 137.957 1826.01 242.059 1828.17 245.944H1880.87V52.6222H1828.17Z" fill="#FE5000"/>
</g>
<defs>
<clipPath id="clip0">
<rect width="2077" height="287" fill="white"/>
</clipPath>
</defs>
</svg>
