<svg width="540px" height="80px" viewBox="0 0 540 80" version="1.1" xmlns="http://www.w3.org/2000/svg" xmlnsxlink="http://www.w3.org/1999/xlink" xmlnssketch="http://www.bohemiancoding.com/sketch/ns">
    <g id="Welcome" stroke="none" stroke-width="1" fill="none" fill-rule="evenodd" sketchtype="MSPage">
        <g id="Technodom" sketchtype="MSArtboardGroup" transform="translate(-450.000000, -191.000000)">
            <g id="Technodom-Copy" sketchtype="MSLayerGroup" transform="translate(450.000000, 191.000000)">
                <g id="Layer_1" sketchtype="MSShapeGroup">
                    <path d="M64.2480686,32.2473026 C62.8315883,31.3985317 61.0690638,31.3985317 59.6525835,32.2473026 C58.2361032,33.0960735 57.3918379,34.6580912 57.4513043,36.32 L57.4513043,70.4948148 L21.4473913,70.4948148 L21.4473913,36.32 C21.5068577,34.6580912 20.6625924,33.0960735 19.2461121,32.2473026 C17.8296318,31.3985317 16.0671073,31.3985317 14.650627,32.2473026 C13.2341467,33.0960735 12.3898814,34.6580912 12.4493478,36.32 L12.4493478,74.642963 C12.455968,76.3012601 13.3554712,77.8246656 14.7971739,78.6192593 C15.5827784,79.2407785 16.5519281,79.5787525 17.55,79.5792593 L61.7536957,79.5792593 C63.5362598,79.5694475 65.1461362,78.5013704 65.8623913,76.8533333 C66.2435296,76.1799574 66.4457263,75.4185217 66.4493478,74.642963 L66.4493478,36.32 C66.5088142,34.6580912 65.664549,33.0960735 64.2480686,32.2473026 Z" id="Shape" fill="#000000"></path>
                    <rect id="Rectangle-path" fill="#000000" x="28.8371739" y="34.1451852" width="21.2302174" height="20.0474074" rx="8.03"></rect>
                    <rect id="Rectangle-path" fill="#EFC919" x="32.8636957" y="37.9496296" width="13.1830435" height="12.4503704" rx="3"></rect>
                    <path d="M20.9602174,11.0044444 L2.76456522,21.6 C1.40151921,22.3939235 0.561537566,23.8616979 0.56103326,25.4504269 C0.560528953,27.0391558 1.3995786,28.5074735 2.7621203,29.3022789 C4.124662,30.0970842 5.80369323,30.0976274 7.16673913,29.3037037 L20.9602174,21.2681481 L20.9602174,11.0044444 L20.9602174,11.0044444 Z" id="Shape" fill="#000000"></path>
                    <path d="M76.8971739,21.6 L48.6469565,5.13185185 L39.8426087,0 L31.0382609,5.13185185 L28.8841304,6.38814815 L28.8841304,16.6518519 L39.8426087,10.2637037 L72.5008696,29.2977778 C74.5985193,30.4448 77.2194136,29.6962438 78.4110254,27.6097724 C79.6026373,25.523301 78.9313107,22.8582311 76.8971739,21.6 L76.8971739,21.6 Z" id="Shape" fill="#000000"></path>
                    <path d="M400.186957,25.6118519 C404.757391,25.6118519 408.545217,26.2755556 411.550435,27.602963 C414.321234,28.7405989 416.720698,30.6395959 418.476522,33.0844444 C420.128262,35.5388435 421.115696,38.3865903 421.34087,41.3451852 C421.621579,44.8097244 421.348081,48.2972962 420.53087,51.6740741 C419.702025,55.4426945 418.344178,59.0724467 416.498478,62.4533333 C413.023578,68.849413 407.312717,73.7087408 400.480435,76.082963 C396.701452,77.3776557 392.731619,78.012916 388.741304,77.9614815 L372.024783,77.9614815 C369.974348,77.9614815 368.73587,77.6730864 368.309348,77.0962963 C367.882826,76.5195062 367.794783,75.68 368.045217,74.5777778 L378.416739,29.0133333 C378.590996,28.0479746 379.068464,27.164905 379.778478,26.4948148 C380.43587,25.9180247 381.81913,25.6296296 383.928261,25.6296296 L400.186957,25.6296296 L400.186957,25.6118519 Z M380.471087,70.1511111 L390.490435,70.1511111 C400.096957,70.1511111 406.318696,63.917037 409.155652,51.4488889 C409.762969,48.940149 410.082028,46.3691296 410.106522,43.7866667 C410.162182,41.798459 409.666116,39.834143 408.674348,38.1155556 C407.645965,36.5183094 406.138318,35.2952112 404.371957,34.6251852 C402.446739,33.8350617 399.871957,33.44 396.647609,33.44 L388.835217,33.44 L380.471087,70.1511111 Z M456.963261,24.1066667 C461.51413,24.1066667 465.30587,24.8197531 468.338478,26.2459259 C471.17836,27.5036391 473.616703,29.5325368 475.381957,32.1066667 C477.081328,34.7301951 478.104282,37.7409306 478.357826,40.8651852 C478.673314,44.5143112 478.411784,48.1908753 477.583043,51.757037 C476.764645,55.5689831 475.423225,59.2469386 473.597609,62.6844444 C471.849511,65.9899725 469.545662,68.9636056 466.788913,71.4725926 C463.977303,74.0005686 460.730637,75.9869562 457.209783,77.3333333 C453.268049,78.8120092 449.088244,79.5374372 444.883696,79.4725926 C440.501087,79.4725926 436.801304,78.7832099 433.784348,77.4044444 C430.948291,76.1730159 428.497348,74.18606 426.693913,71.6562963 C424.923016,69.0446804 423.842121,66.0197088 423.553696,62.8681481 C423.191793,59.1466417 423.441683,55.3903325 424.293261,51.7511111 C425.106231,47.9763795 426.412907,44.3275927 428.178913,40.9007407 C429.871383,37.594471 432.133171,34.6186904 434.858478,32.1125926 C437.650259,29.5786563 440.884645,27.5912572 444.396522,26.2518519 C448.421598,24.75657 452.686774,24.0291695 456.975,24.1066667 L456.963261,24.1066667 Z M446.756087,70.9214815 C449.420847,70.9818723 452.069038,70.4834692 454.533261,69.4577778 C456.687842,68.5184464 458.633853,67.1522262 460.256087,65.44 C461.900787,63.6825301 463.229575,61.6491542 464.182826,59.4311111 C465.22061,57.0384471 466.018925,54.5470522 466.56587,51.9940741 C467.119142,49.5233738 467.379231,46.9949796 467.340652,44.4622222 C467.340867,42.3343822 466.877998,40.2324821 465.984783,38.3051852 C465.128944,36.5422201 463.750261,35.0923023 462.040435,34.157037 C460.263913,33.1575309 457.943478,32.6577778 455.07913,32.6577778 C450.023343,32.5364877 445.156671,34.5997288 441.702391,38.3288889 C440.051445,40.1130717 438.695833,42.1540095 437.687609,44.3733333 C436.606146,46.728332 435.785312,49.1965942 435.24,51.7333333 C434.733667,54.027096 434.477793,56.3699646 434.476957,58.72 C434.441782,60.8419018 434.874863,62.9451042 435.744783,64.877037 C436.591319,66.6842975 437.947003,68.1993511 439.642174,69.2325926 C441.41087,70.3466667 443.786087,70.9037037 446.767826,70.9037037 L446.756087,70.9214815 Z M537.734348,72.9481481 C537.684816,73.6845874 537.566907,74.414705 537.382174,75.1288889 C537.209015,75.810969 536.879252,76.4423173 536.419565,76.9718519 C535.892414,77.5428407 535.238658,77.9794785 534.511957,78.2459259 C533.490282,78.6046076 532.411696,78.7693555 531.330652,78.7318519 C529.495435,78.7792593 528.337174,78.4158025 527.85587,77.6414815 C527.374565,76.8671605 527.178913,75.602963 527.268913,73.8488889 L529.164783,46.7318519 C529.192174,45.5822222 528.976957,45.0054321 528.51913,45.0014815 C528.061304,44.9975309 527.507609,45.574321 526.858043,46.7318519 L510.951522,75.5614815 C510.497622,76.4648222 509.842688,77.2497711 509.038043,77.8548148 C508.255435,78.4316049 506.954348,78.72 505.134783,78.72 C504.347918,78.7343455 503.561554,78.6708323 502.786957,78.5303704 C502.279774,78.4466897 501.799214,78.2436876 501.38413,77.9377778 C501.06444,77.6888828 500.827035,77.3479521 500.703261,76.96 C500.572893,76.5078455 500.490259,76.0430378 500.456739,75.5733333 C499.877609,70.7180247 499.290652,65.9239506 498.69587,61.1911111 C498.101087,56.4582716 497.55913,51.6582716 497.07,46.7911111 C496.936957,45.6059259 496.657174,45.0133333 496.230652,45.0133333 C495.80413,45.0133333 495.344348,45.6059259 494.851304,46.7911111 L484.949348,73.3807407 C484.441229,74.9129416 483.563836,76.2935958 482.396087,77.3985185 C481.374783,78.2755556 479.78413,78.7140741 477.62413,78.7140741 C475.859348,78.7140741 474.732391,78.2755556 474.243261,77.3985185 C473.75413,76.5214815 473.949783,75.0320988 474.830217,72.9303704 L491.587826,30.3407407 C492.187221,28.6852605 493.293282,27.2655387 494.745652,26.2874074 C496.195271,25.3342014 497.893485,24.8390329 499.623261,24.8651852 C501.159521,24.7796899 502.682295,25.1952024 503.966739,26.0503704 C505.042826,26.8404938 505.713913,28.4424691 505.98,30.8562963 L508.779783,62.2637037 L525.214565,30.72 C526.474565,28.3496296 527.830435,26.7851852 529.282174,26.0266667 C530.741339,25.2409285 532.37106,24.8336588 534.024783,24.8414815 C535.543399,24.7937636 537.025779,25.3151511 538.186304,26.3051852 C539.309348,27.2809877 539.835652,28.6953086 539.765217,30.5481481 L537.734348,72.9481481 Z" id="Shape" fill="#000000"></path>
                    <path d="M112.965652,34.1274074 L112.965652,74.6133333 C112.960636,75.6271486 112.559925,76.59809 111.850435,77.3155556 C111.106957,78.105679 109.866522,78.5007407 108.12913,78.5007407 C106.391739,78.5007407 105.151304,78.0760494 104.407826,77.2266667 C103.724086,76.5207374 103.326329,75.5823176 103.292609,74.5955556 L103.292609,34.1274074 L93.7721739,34.1274074 C92.8193741,34.1061699 91.9013898,33.7617514 91.166087,33.1496296 C90.3208696,32.4977778 89.9002174,31.3718519 89.9041304,29.7718519 C89.9080435,28.1718519 90.2993478,27.0577778 91.0780435,26.4296296 C91.8182863,25.7741632 92.7699555,25.4138605 93.7545652,25.4162963 L122.468478,25.4162963 C123.453088,25.4138605 124.404757,25.7741632 125.145,26.4296296 C125.927609,27.1051852 126.318913,28.2192593 126.318913,29.7718519 C126.318913,31.3244444 125.898261,32.4503704 125.056957,33.1496296 C124.321654,33.7617514 123.403669,34.1061699 122.45087,34.1274074 L112.965652,34.1274074 L112.965652,34.1274074 Z M140.341304,69.3511111 L158.343261,69.3511111 C160.229348,69.3511111 161.567609,69.651358 162.358043,70.2518519 C163.148478,70.8523457 163.539783,71.9545679 163.531957,73.5585185 C163.531957,75.1624691 163.140652,76.2646914 162.358043,76.8651852 C161.575435,77.465679 160.237174,77.7659259 158.343261,77.7659259 L135.451957,77.7659259 C134.218815,77.8389669 132.99225,77.5376369 131.930217,76.9007407 C131.085,76.3239506 130.664348,75.2355556 130.668261,73.6355556 L130.668261,29.5466667 C130.668261,27.9940741 131.059565,26.9175309 131.842174,26.317037 C132.624783,25.7165432 133.814348,25.4162963 135.41087,25.4162963 L158.396087,25.4162963 C159.550269,25.3286345 160.697435,25.6607444 161.630217,26.3525926 C162.350217,26.9807407 162.741522,28.0691358 162.80413,29.6177778 C162.866739,31.1664198 162.495,32.2548148 161.688913,32.882963 C160.708853,33.5641601 159.530824,33.8938367 158.343261,33.8192593 L140.341304,33.8192593 L140.341304,46.5125926 L157.603696,46.5125926 C159.188478,46.5125926 160.32913,46.8503704 161.025652,47.5259259 C161.722174,48.2014815 162.068478,49.2898765 162.064565,50.7911111 C162.064565,52.2923457 161.718261,53.357037 161.025652,53.9851852 C160.333043,54.6133333 159.192391,54.9254321 157.603696,54.9214815 L140.341304,54.9214815 L140.341304,69.3451852 L140.341304,69.3511111 Z M191.471087,79.2651852 C187.926314,79.2963917 184.406914,78.6593089 181.093696,77.3866667 C177.969874,76.1848631 175.140584,74.3149247 172.8,71.9051852 C170.419536,69.3996902 168.582431,66.4207955 167.40587,63.1585185 C166.064474,59.4177443 165.433245,55.4552853 165.545217,51.4785185 C165.527019,47.510793 166.19441,43.570266 167.517391,39.8340741 C168.654285,36.6432031 170.399071,33.7079757 172.653261,31.1940741 C174.790196,28.8540413 177.403208,27.0083808 180.313043,25.7837037 C183.34304,24.516002 186.594816,23.8771371 189.874565,23.9051852 C192.1319,23.8915114 194.378824,24.2150122 196.542391,24.8651852 C198.394335,25.4111191 200.169584,26.1937546 201.825,27.1940741 C203.147817,27.9714317 204.33714,28.9600439 205.346739,30.1214815 C206.046803,30.8660614 206.535421,31.7871796 206.761304,32.7881481 C206.868016,33.3396202 206.829562,33.9097069 206.649783,34.4414815 C206.473696,34.8918519 206.338696,35.2177778 206.238913,35.4192593 C206.012437,35.7584801 205.737505,36.0620121 205.423043,36.32 C205.006531,36.6812329 204.526756,36.9606065 204.008478,37.1437037 C203.178921,37.5467521 202.20717,37.5180268 201.402391,37.0666667 C200.557174,36.6162963 199.61413,36.0533333 198.573261,35.3777778 C197.398878,34.6300864 196.168389,33.9762421 194.893043,33.4222222 C193.226146,32.7496689 191.439906,32.4309485 189.645652,32.4859259 C187.468666,32.4468525 185.322115,33.0060541 183.435652,34.1037037 C181.636925,35.169829 180.088885,36.6174871 178.898478,38.3466667 C177.642904,40.1863744 176.711598,42.2312643 176.145652,44.3911111 C175.520746,46.708502 175.208795,49.1005037 175.218261,51.5022222 C175.201397,53.918627 175.535605,56.3244682 176.210217,58.642963 C176.858341,60.881133 177.904518,62.9815288 179.297609,64.8414815 C180.659238,66.6434756 182.39913,68.1187758 184.392391,69.1614815 C186.572882,70.2695916 188.996635,70.7997808 191.43587,70.7022222 C192.664816,70.6753284 193.88713,70.512378 195.08087,70.2162963 C196.03081,69.9758409 196.953388,69.6362342 197.833696,69.202963 C198.588933,68.8263206 199.311477,68.3862529 199.993696,67.8874074 C200.639348,67.4133333 201.285,66.9254321 201.930652,66.4237037 C202.94352,65.5535549 204.361485,65.3483846 205.575652,65.8962963 C206.549263,66.2109422 207.371725,66.8807238 207.882391,67.7748148 C208.271384,68.5374651 208.426676,69.3997708 208.328478,70.2518519 C208.070654,71.1572345 207.613129,71.9919292 206.990217,72.6933333 C206.037221,73.8650366 204.908322,74.8788042 203.644565,75.6977778 C202.013315,76.7676325 200.248824,77.6145111 198.397174,78.2162963 C196.15989,78.941935 193.820785,79.2961698 191.471087,79.2651852 L191.471087,79.2651852 Z M245.471087,28.5688889 C245.494523,27.6011197 245.849183,26.6714055 246.474783,25.9377778 C247.143913,25.0883951 248.396087,24.6637037 250.231304,24.6637037 C251.968696,24.6637037 253.22087,25.0587654 253.987826,25.8488889 C254.72438,26.5527181 255.14777,27.5273154 255.161739,28.5511111 L255.161739,74.5955556 C255.163174,75.5932627 254.775146,76.5513562 254.081739,77.2622222 C253.361739,78.0523457 252.135,78.4651852 250.401522,78.5007407 C248.668043,78.5362963 247.41587,78.1234568 246.645,77.2622222 C245.936967,76.5529558 245.518091,75.6014338 245.471087,74.5955556 L245.471087,55.0874074 L222.89087,55.0874074 L222.89087,74.642963 C222.892304,75.6406701 222.504276,76.5987636 221.81087,77.3096296 C221.09087,78.0997531 219.86413,78.5125926 218.130652,78.5481481 C216.397174,78.5837037 215.145,78.1708642 214.37413,77.3096296 C213.666098,76.6003632 213.247221,75.6488412 213.200217,74.642963 L213.200217,28.5985185 C213.243253,27.6020454 213.66345,26.6602519 214.37413,25.9674074 C215.156739,25.1180247 216.408913,24.6933333 218.130652,24.6933333 C219.852391,24.6933333 221.07913,25.0883951 221.81087,25.8785185 C222.500639,26.6061966 222.887256,27.5735345 222.89087,28.5807407 L222.89087,46.6725926 L245.506304,46.6725926 L245.506304,28.5688889 L245.471087,28.5688889 Z M275.347174,74.6133333 C275.342158,75.6271486 274.941447,76.59809 274.231957,77.3155556 C273.488478,78.105679 272.248043,78.5007407 270.510652,78.5007407 C268.773261,78.5007407 267.532826,78.0760494 266.789348,77.2266667 C266.105607,76.5207374 265.707851,75.5823176 265.67413,74.5955556 L265.67413,28.1955556 C265.665559,27.323337 265.926086,26.4700484 266.419565,25.7540741 C266.916522,25.0271605 268.057174,24.6637037 269.841522,24.6637037 C270.734414,24.6258198 271.605205,24.9501676 272.259783,25.5644444 C272.84018,26.112784 273.376032,26.7072867 273.862174,27.3422222 L297.369783,59.2651852 L297.369783,28.5688889 C297.403503,27.5821268 297.801259,26.643707 298.485,25.9377778 C299.228478,25.0883951 300.468913,24.6637037 302.206304,24.6637037 C303.943696,24.6637037 305.18413,25.0587654 305.927609,25.8488889 C306.636562,26.5667169 307.037177,27.5374255 307.042826,28.5511111 L307.042826,75.117037 C307.047111,75.9537915 306.785877,76.7699419 306.297391,77.4459259 C305.800435,78.1451852 304.685217,78.4948148 302.951739,78.4948148 C302.037288,78.5240263 301.145869,78.2021515 300.457174,77.5940741 C299.84269,77.0588074 299.282336,76.4632969 298.784348,75.8162963 L275.40587,44.9422222 L275.40587,74.6133333 L275.347174,74.6133333 Z M364.987174,40.242963 C364.134084,37.0670656 362.667976,34.092596 360.673043,31.4903704 C358.713689,28.9905404 356.206082,26.984261 353.347826,25.6296296 C350.068333,24.1428618 346.499613,23.419834 342.90587,23.5140741 C338.738478,23.5140741 335.179565,24.2271605 332.22913,25.6533333 C329.376712,27.0013859 326.879182,29.009256 324.93913,31.5140741 C322.964945,34.1269525 321.535341,37.1164222 320.736522,40.3022222 C319.833256,43.847894 319.393219,47.4976148 319.427609,51.1585185 C319.392483,54.9168899 319.892596,58.6608479 320.912609,62.2755556 C321.79937,65.477878 323.316557,68.4668166 325.373478,71.0637037 C327.361732,73.5227286 329.88165,75.4890957 332.739783,76.8118519 C339.350981,79.5907571 346.792374,79.5629871 353.383043,76.7348148 C356.2413,75.3801834 358.748906,73.373904 360.708261,70.8740741 C362.708251,68.2618411 364.174642,65.2747125 365.022391,62.0859259 C365.988305,58.5262405 366.464294,54.8492624 366.436957,51.1585185 C366.465609,47.4813373 365.989563,43.817875 365.022391,40.2725926 L364.987174,40.242963 Z M356.094783,58.8207407 C355.713884,60.954298 354.930797,62.9941827 353.788043,64.8296296 C352.718796,66.5106161 351.247173,67.8924285 349.50913,68.8474074 C347.466023,69.8911185 345.194131,70.3947145 342.90587,70.3111111 C340.600403,70.3955335 338.318013,69.8225374 336.320217,68.6577778 C334.571064,67.5702136 333.104152,66.0770262 332.041304,64.3022222 C330.914129,62.4055399 330.13286,60.3202126 329.734565,58.1451852 C329.288401,55.8436014 329.06431,53.5037669 329.065435,51.1585185 C329.052484,48.6853302 329.302393,46.2178766 329.81087,43.7985185 C330.243431,41.6568308 331.050382,39.6100508 332.193913,37.7540741 C333.263172,36.0392261 334.732305,34.6149896 336.472826,33.6059259 C338.451391,32.5228576 340.679868,31.9910691 342.929348,32.0651852 C345.174042,31.989557 347.399459,32.5063179 349.38587,33.5644444 C351.136666,34.5596045 352.608867,35.9868143 353.664783,37.7125926 C354.811703,39.6074231 355.618422,41.69173 356.047826,43.8696296 C356.555447,46.3391778 356.80529,48.8556413 356.793261,51.3777778 C356.798853,53.8757074 356.564936,56.3683185 356.094783,58.8207407 L356.094783,58.8207407 Z" id="Shape" fill="#F47920"></path>
                </g>
            </g>
        </g>
    </g>
</svg>