<?xml version="1.0" standalone="no"?>
<!DOCTYPE svg PUBLIC "-//W3C//DTD SVG 20010904//EN"
 "http://www.w3.org/TR/2001/REC-SVG-20010904/DTD/svg10.dtd">
<svg version="1.0" xmlns="http://www.w3.org/2000/svg"
 width="800.000000pt" height="800.000000pt" viewBox="0 0 800.000000 800.000000"
 preserveAspectRatio="xMidYMid meet">
<metadata>
Created by potrace 1.14, written by Peter Selinger 2001-2017
</metadata>
<g transform="translate(0.000000,800.000000) scale(0.100000,-0.100000)"
fill="#000000" stroke="none">
<path d="M2805 7986 c-170 -63 -218 -131 -300 -426 -13 -47 -33 -114 -43 -150
-33 -107 -113 -384 -116 -395 -1 -5 -5 -16 -9 -22 -5 -7 -6 -13 -4 -13 3 0 -6
-37 -20 -82 -44 -149 -54 -182 -69 -238 -8 -30 -18 -62 -21 -70 -3 -8 -7 -19
-8 -25 -2 -5 -22 -75 -45 -155 -23 -80 -64 -224 -91 -320 -28 -96 -51 -179
-53 -185 -2 -5 -3 -12 -4 -15 0 -3 -7 -23 -16 -45 -10 -22 -16 -40 -15 -40 0
0 -4 -20 -11 -45 -7 -25 -13 -49 -14 -55 -2 -10 -25 -87 -67 -225 -10 -36 -21
-76 -24 -88 -2 -12 -7 -27 -10 -32 -3 -5 -8 -18 -10 -27 -1 -10 -11 -45 -20
-78 -10 -33 -17 -61 -17 -62 1 -2 -6 -22 -14 -45 -9 -24 -17 -50 -19 -58 -2
-8 -15 -55 -30 -105 -15 -49 -31 -106 -36 -125 -11 -42 -12 -42 -43 -150 -14
-47 -41 -139 -60 -205 -19 -66 -62 -214 -96 -330 -34 -115 -68 -235 -76 -265
-9 -30 -28 -98 -44 -150 -53 -172 -141 -475 -146 -497 -2 -12 -8 -33 -13 -45
-5 -13 -9 -26 -10 -30 -1 -4 -3 -13 -6 -20 -3 -11 -20 -73 -31 -113 -1 -5 -18
-64 -37 -130 -44 -150 -44 -212 -1 -282 31 -50 87 -95 139 -111 19 -5 384 -9
910 -9 940 0 931 -1 1018 50 52 31 125 109 145 157 12 28 63 194 76 245 10 40
28 103 33 115 7 16 9 25 17 55 3 11 17 61 31 110 14 50 28 97 30 105 18 65 57
198 62 210 3 8 7 20 8 25 8 32 127 443 132 455 3 8 8 23 10 33 1 10 12 46 22
80 17 56 84 284 116 397 7 25 20 70 29 100 9 30 16 57 15 60 0 3 5 19 11 35
11 28 107 351 115 385 4 18 157 545 186 643 12 37 22 73 23 80 2 7 6 19 9 27
5 13 55 187 62 215 1 6 5 17 8 25 3 8 51 175 107 370 56 195 104 362 107 370
4 8 7 20 8 25 2 6 13 44 25 85 12 41 23 80 24 85 1 6 10 37 20 70 10 33 20 67
21 75 2 8 4 15 5 15 1 0 3 7 5 15 2 8 16 56 31 105 14 50 27 98 29 108 2 9 7
22 10 27 3 5 8 18 10 27 2 10 17 63 32 118 18 61 28 118 26 147 -3 59 -35 123
-82 166 -70 64 -43 62 -1021 61 -625 -1 -894 -5 -915 -13z"/>
<path d="M4808 5468 c-82 -8 -162 -43 -216 -94 -40 -40 -91 -111 -96 -136 -1
-7 -13 -46 -25 -87 -13 -41 -24 -81 -26 -90 -2 -9 -13 -47 -25 -86 -12 -38
-23 -77 -25 -86 -2 -9 -10 -37 -19 -62 -8 -25 -17 -56 -20 -69 -2 -13 -9 -34
-14 -48 -5 -14 -10 -28 -11 -32 0 -5 -1 -9 -2 -10 0 -2 -2 -10 -4 -18 -7 -29
-57 -205 -63 -220 -5 -16 -79 -264 -86 -290 -9 -36 -38 -137 -46 -160 -9 -29
-44 -143 -45 -150 -6 -31 -19 -77 -23 -85 -4 -5 -7 -14 -8 -20 -3 -16 -31
-113 -64 -225 -17 -58 -33 -112 -34 -120 -6 -25 -47 -164 -54 -180 -3 -8 -6
-19 -7 -25 -2 -11 -17 -63 -71 -244 -19 -63 -36 -124 -39 -135 -2 -12 -13 -50
-24 -86 -16 -52 -104 -354 -115 -395 -2 -5 -6 -17 -9 -25 -7 -17 -75 -255 -82
-284 -8 -33 -86 -300 -95 -326 -5 -14 -11 -36 -14 -50 -2 -14 -11 -45 -19 -70
-9 -25 -43 -142 -77 -260 -33 -118 -64 -222 -67 -230 -3 -8 -7 -19 -8 -25 -2
-5 -24 -84 -50 -175 -26 -91 -48 -169 -50 -175 -1 -5 -5 -17 -8 -25 -4 -8 -15
-46 -26 -85 -11 -38 -30 -108 -44 -155 -39 -135 -41 -143 -43 -189 -4 -89 44
-170 125 -214 l49 -27 908 0 c995 0 949 -2 1038 59 51 36 88 76 113 121 16 27
76 212 88 265 1 6 8 30 15 55 7 25 15 50 16 55 11 42 76 263 81 275 3 8 8 23
9 33 2 10 26 93 53 185 77 261 84 286 86 297 2 6 12 42 23 80 12 39 21 72 21
75 0 3 5 19 11 35 7 17 13 37 15 45 3 8 11 38 19 65 54 187 67 233 72 254 3
13 11 39 19 57 8 19 12 34 10 34 -3 0 0 12 6 28 6 15 12 34 14 42 2 8 11 42
21 75 10 33 19 63 20 68 1 4 3 9 4 12 1 3 4 10 5 15 1 6 4 11 5 13 1 1 4 11 6
22 3 22 41 161 51 185 3 8 7 20 8 25 2 6 13 43 25 84 12 41 23 81 25 90 2 9
10 35 19 59 8 23 15 45 15 47 0 8 15 58 87 305 36 124 68 232 70 240 7 28 53
185 114 395 34 116 77 264 96 330 19 66 44 152 56 190 11 39 21 75 22 80 2 6
5 17 9 25 3 8 40 137 82 285 42 149 81 281 86 295 5 14 11 34 13 45 3 11 18
65 34 120 17 55 32 117 35 138 7 51 -15 128 -48 171 -22 29 -85 78 -105 82 -3
0 -16 4 -31 8 -32 9 -1671 13 -1761 4z"/>
</g>
</svg>
