<svg width="36" height="50" viewBox="0 0 36 50" fill="none" xmlns="http://www.w3.org/2000/svg">
<path fill-rule="evenodd" clip-rule="evenodd" d="M11.9795 34.2383H1.53545C1.29738 34.2383 1.06257 34.1833 0.849567 34.0777C0.636567 33.972 0.451215 33.8186 0.308152 33.6295C0.16509 33.4404 0.0682363 33.2209 0.0252441 32.9882C-0.0177482 32.7556 -0.00570247 32.5162 0.060431 32.2889L8.97939 1.6432C9.11728 1.16942 9.40637 0.752988 9.80312 0.45662C10.1999 0.160253 10.6828 0 11.1792 0H21.6233C21.8613 0 22.0961 0.0550049 22.3091 0.16067C22.5221 0.266334 22.7075 0.419763 22.8506 0.608836C22.9936 0.797909 23.0905 1.01745 23.1335 1.2501C23.1765 1.48276 23.1644 1.72216 23.0983 1.9494L14.1793 32.5951C14.0414 33.0689 13.7523 33.4854 13.3556 33.7817C12.9588 34.0781 12.4759 34.2383 11.9795 34.2383ZM24.0466 50.0398H13.6026C13.3645 50.0398 13.1297 49.9848 12.9167 49.8792C12.7037 49.7735 12.5183 49.6201 12.3753 49.431C12.2322 49.2419 12.1353 49.0224 12.0923 48.7897C12.0494 48.5571 12.0614 48.3177 12.1275 48.0905L21.0465 17.4447C21.1844 16.9709 21.4735 16.5545 21.8702 16.2581C22.267 15.9618 22.7499 15.8015 23.2463 15.8015H33.6904C33.9284 15.8015 34.1632 15.8565 34.3762 15.9622C34.5892 16.0678 34.7746 16.2213 34.9177 16.4103C35.0607 16.5994 35.1576 16.8189 35.2006 17.0516C35.2436 17.2843 35.2315 17.5237 35.1654 17.7509L26.2464 48.3966C26.1085 48.8704 25.8194 49.2869 25.4227 49.5832C25.0259 49.8796 24.543 50.0398 24.0466 50.0398Z" fill="url(#paint0_linear_294_1725)"/>
<defs>
<linearGradient id="paint0_linear_294_1725" x1="17.6129" y1="0" x2="17.6129" y2="50.0398" gradientUnits="userSpaceOnUse">
<stop stop-color="#3cba92"/>
<stop offset="1" stop-color="#31BA81"/>
</linearGradient>
</defs>
</svg>
